<svg id="Layer_1" data-name="Layer 1" xmlns="http://www.w3.org/2000/svg" viewBox="0 0 578.59 345.99"><defs><style>.cls-1{fill:#27303f;}.cls-2{fill:#f7991e;}</style></defs><title>aws</title><path class="cls-1" d="M248.86,140.66c9.9-42,19.69-83.47,29.44-124.95,2.25-9.58,4.22-11.29,14-11.23,5.33,0,10.66-.22,16,.21,4.29.34,6.83,2.66,7.86,6.65,1.57,6.06,3,12.15,4.45,18.24,8.84,37.39,17.65,74.78,26.68,113,1.51-5.7,2.84-10.61,4.11-15.54q14.38-55.82,28.75-111.63c2.38-9.23,4.64-11,14.11-11,4.95,0,9.9,0,14.85,0,4.5,0,6.29,2.13,5.4,6.58-1.81,8.94-5.06,17.48-7.76,26.17q-19.8,63.87-39.81,127.66c-2.92,9.35-4.7,10.66-14.43,10.66-4.86,0-9.72.11-14.57-.06-6.59-.23-8.84-2.19-10.44-8.7-1.36-5.53-2.68-11.07-4-16.6Q310.8,97.45,298.13,44.73c-.15-.64-.37-1.27-.75-2.5-1.87,7.76-3.63,15-5.35,22.18Q280,114.8,268,165.2a31.4,31.4,0,0,1-1,3.26c-1.79,5.09-3.65,6.58-9,6.69-6.47.12-12.94,0-19.42,0-4.63.05-7.58-2.21-9-6.47q-3.61-11.08-7-22.25Q202.94,81.83,183.33,17.16A28.25,28.25,0,0,1,181.6,9.4c0-3.08,1.31-4.83,4.34-4.86,7.32-.07,14.65-.35,22,.18A7.67,7.67,0,0,1,215,10c2.6,6.56,3.85,13.49,5.59,20.28q13.81,54.19,27.52,108.42A18.39,18.39,0,0,0,248.86,140.66Z" transform="translate(-0.41 0.44)"/><path class="cls-2" d="M288,345.54c-77.15-.45-149.29-19.48-216-58.44A415.7,415.7,0,0,1,3.52,236.91a11.73,11.73,0,0,1-2.07-2.33c-1.23-1.91-1.5-4-.1-5.88S4.7,226.41,7,227a18.35,18.35,0,0,1,4.62,2.2,550.44,550.44,0,0,0,96.25,43.42A586,586,0,0,0,206.49,297a576.53,576.53,0,0,0,88.4,7,534.24,534.24,0,0,0,66.63-4.12,572.16,572.16,0,0,0,151.91-40.15,13.27,13.27,0,0,1,7.75-1.25c6.57,1.26,9.1,8.24,4.71,13.3a20.46,20.46,0,0,1-3.44,3c-32.19,23.38-67.89,39.54-105.74,51.21a443.37,443.37,0,0,1-84.8,17.28A402.09,402.09,0,0,1,288,345.54Z" transform="translate(-0.41 0.44)"/><path class="cls-1" d="M133.61,153.25c-5.36,6.17-11.08,11.6-17.89,15.68-19.46,11.66-40.18,14.49-61.54,6.71C36.23,169.1,27,155,24.72,136.36c-1.47-12.37.1-24.35,6.82-35.15,8.53-13.7,21.34-21.3,36.76-24.86C82.62,73,97,73.9,111.41,76c6.1.91,12.16,2.1,18.17,3.51.84.2,1.93.78,1.91-1-.1-10,.63-20-1.88-29.82C126.22,35.54,117.82,29,102.88,27.09,83.7,24.65,65.71,29,48.09,36a57.28,57.28,0,0,1-6.74,2.25c-3.1.81-5-.21-5.38-3.3a52.65,52.65,0,0,1,.23-16.76c.53-2.73,2.91-4.1,5.2-5.35A102.65,102.65,0,0,1,64.78,4c19.68-5.11,39.45-5.9,59.23-.88,22,5.59,33.84,20.46,37.71,42.33a113.41,113.41,0,0,1,1.41,19.9c0,17.8.1,35.61,0,53.41-.08,13.32,1.89,26.07,8.82,37.76,2.27,3.83,1.71,6.6-1.85,9.25-4.49,3.34-9.18,6.44-14,9.33-3.62,2.18-6.86,1.27-10.16-2.23-4.35-4.62-7.48-10-10.31-15.66C135,156,134.37,154.73,133.61,153.25Zm-1.69-43.43c0-1.63-.09-3.92,0-6.2.08-1.49-.36-2.14-1.9-2.48-15.13-3.34-30.4-5.21-45.85-3C73.65,99.59,64.67,104,60.28,114.57c-2.66,6.41-2.71,13.17-1.49,19.92,1.89,10.46,8,17.22,18.53,19,14.9,2.55,28.71-.53,40.83-9.87A32.05,32.05,0,0,0,130.71,123,108.83,108.83,0,0,0,131.92,109.82Z" transform="translate(-0.41 0.44)"/><path class="cls-1" d="M487.77,180.44a130.71,130.71,0,0,1-45.86-8.11c-.63-.23-1.25-.45-1.86-.71-10.22-4.33-11.87-6.79-11.84-17.85a35.31,35.31,0,0,1,.27-7.12c.62-3.09,2.42-4.38,5.52-3.89a28,28,0,0,1,6.72,2.3A108.94,108.94,0,0,0,491.9,154c7.74-.46,15.18-2.16,21.87-6.47,12.16-7.84,13.33-27.91-1.64-35.64-8.08-4.18-16.79-6.5-25.35-9.28-10-3.25-20.29-5.67-29.72-10.55-15.06-7.8-24.34-20-26.5-36.82C428.53,39.34,434,26,446,15.45,458.87,4.2,474.28,0,491-.41a117,117,0,0,1,40.6,6.49,53.31,53.31,0,0,1,5.22,2.25c6.14,2.85,9.48,7.38,8.8,14.44-.21,2.17,0,4.38-.06,6.57-.2,5.29-2.64,7-7.64,5.38a40.88,40.88,0,0,1-4-1.54,90.12,90.12,0,0,0-49.9-6.59,33.85,33.85,0,0,0-12.1,4c-12.06,6.83-13.32,24.07-2.31,32.49,5.89,4.51,12.79,6.93,19.74,9.26,11.95,4,24.22,7.08,35.89,11.93,12.1,5,21.82,12.67,26.73,25.33,8.09,20.83.91,44-17.94,57.59-10.2,7.35-21.9,10.71-34.16,12.5A91.36,91.36,0,0,1,487.77,180.44Z" transform="translate(-0.41 0.44)"/><path class="cls-2" d="M520.76,238c-14.2,0-28.29,1.5-42.36,3.18a26.62,26.62,0,0,1-4,.27c-3.41-.11-4.7-2.47-3.07-5.48a11.11,11.11,0,0,1,3.84-3.75C487.4,224,501,219.49,515.44,217.16c16.58-2.68,33.14-2.79,49.62.86,2.21.49,4.36,1.3,6.54,1.95,5,1.48,7,5.05,7.27,10,.67,11.66-1.41,22.93-4.63,34-5.29,18.29-13.33,35.16-26.43,49.29-2,2.16-4.22,4.12-6.37,6.14a9.57,9.57,0,0,1-3.88,2.34c-1.39.39-2.86.54-4-.64a3.56,3.56,0,0,1-.68-4c1.69-4.44,3.45-8.85,5.14-13.28,5.25-13.77,10.36-27.57,13.06-42.12A48.38,48.38,0,0,0,552,250.7c-.27-5.49-2.31-8.39-7.51-10.23A51.92,51.92,0,0,0,529.32,238C526.48,237.89,523.62,238,520.76,238Z" transform="translate(-0.41 0.44)"/></svg>