<?xml version="1.0" encoding="utf-8"?>
<!-- Generator: Adobe Illustrator 23.0.1, SVG Export Plug-In . SVG Version: 6.00 Build 0)  -->
<svg version="1.1" id="Layer_1" xmlns="http://www.w3.org/2000/svg" xmlns:xlink="http://www.w3.org/1999/xlink" x="0px" y="0px"
	 viewBox="0 0 21.2 21.2" style="enable-background:new 0 0 21.2 21.2;" xml:space="preserve">
<style type="text/css">
	.st0{fill:#FFFFFF;}
</style>
<title>exitbutton</title>
<path class="st0" d="M3.3,0.4l17.5,17.5c0.3,0.3,0.3,0.8,0,1.1L19,20.8c-0.3,0.3-0.8,0.3-1.1,0L0.4,3.3C0.1,3,0.1,2.5,0.4,2.2
	l1.8-1.8C2.5,0.1,3,0.1,3.3,0.4z"/>
<path class="st0" d="M20.8,3.3L3.3,20.8c-0.3,0.3-0.8,0.3-1.1,0L0.4,19c-0.3-0.3-0.3-0.8,0-1.1L17.9,0.4c0.3-0.3,0.8-0.3,1.1,0
	l1.8,1.8C21.1,2.5,21.1,3,20.8,3.3z"/>
</svg>
