<svg id="Layer_1" data-name="Layer 1" xmlns="http://www.w3.org/2000/svg" viewBox="0 0 600.05 199.88"><title>Flask</title><path d="M0,17.72c1.15-2.35,3.1-2.81,5.52-2.56,33.82,3.49,67.69,1.58,101.54.78,4.69-.11,9.37-.44,14-.56,2.85-.08,3.65,1.22,3.31,4.19-1.05,9.17-1.74,18.38-2.52,27.58-.2,2.33.15,5-2.91,5.67s-5.2-.86-6.5-3.72C111.05,46,109.59,43,108,40c-3.31-6.26-8.65-9.93-15.62-10.24-14-.6-28.11-.87-42.18-.95-5.55,0-6.59,1.4-6.59,6.85q0,29.13,0,58.25c0,4.74.47,5.33,5.12,5.15,11.32-.42,22.64-1,34-1.55,4.18-.2,6.79-2.36,7.65-6.5.68-3.31,1.15-6.68,2-9.94s3.39-3.66,6.24-3,4.27,2.11,3.66,5.28c-2.85,14.81-3,29.77-2.39,44.78.12,2.83.38,5.63-3.49,6.24s-5.29-1.65-6-5a52.59,52.59,0,0,0-1.93-6.34c-2.49-7.38-7.42-11.31-15.42-11.36-8.46-.06-16.93-.35-25.39-.68-3-.12-4.16.81-4.15,4,.12,19.68,0,39.36.09,59,0,6.29,2.1,9.06,8.15,10.69,3.76,1,7.64,1.54,11.48,2.27,1.53.29,3.35.1,4.55.88,1.56,1,3.61,2.77,3.64,4.24s-2,3.82-3.54,4.13a36.9,36.9,0,0,1-10.45.45c-16.79-1.36-33.57-1.84-50.33.29-3.11.4-5.7,0-7.19-3.12V191.4c1.83-1.07,3.57-2.8,5.51-3.1,6.81-1,10.85-4.91,12.44-11.31a60.8,60.8,0,0,0,1.55-11.18c.26-4.42.07-8.86.07-13.3,0-35.06-.08-70.13.05-105.2,0-10.22-4-17.51-13.41-21.78A50,50,0,0,1,0,21.63Z" transform="translate(0.05 -0.48)"/><path d="M503,70c0,20.59,0,41.19.06,61.79,0,1.66.88,3.33,1.34,5,1.66-.58,3.63-.77,4.92-1.81,10-8.13,20-16.34,29.74-24.76,1.58-1.37,3.25-4.22,2.83-5.85s-3.35-2.77-5.39-3.63c-1.75-.75-3.82-.73-5.72-1.17-3.09-.7-4.21-2.75-3.79-5.81s2.35-3.56,5-3.47q26.18.9,52.35,1.59c3,.08,5.89.13,6.24,4.15.31,3.46-1.28,5.62-5.74,5.81-19.54.8-33.8,11.58-47.2,24.24-2.3,2.17-2.76,4.1-1.14,6.78,10.24,16.92,21.79,32.79,36.77,45.88,5.56,4.85,11.92,7.72,19.56,7.66,2.14,0,5.19,1,6.25,2.55,2.29,3.41-.14,7.48-4.44,7.8-10.4.78-20.8,1.54-31.22,1.71-2.44,0-5.53-1.7-7.3-3.58a267,267,0,0,1-34.41-45.42c-2.81-4.65-3.89-4.77-8.76-2.26-7.21,3.72-11.24,9-10,17.53.55,3.85.32,7.81.68,11.7.53,5.85,2.7,8.36,8.4,9.72,2.78.67,5.66.89,8.46,1.46,1.64.33,3.77.47,4.7,1.54a8.36,8.36,0,0,1,1.74,5.41c0,.8-2.42,2.09-3.78,2.14-16.78.58-33.57,1-50.36,1.39a8,8,0,0,1-3.1-.18c-1.41-.61-3.43-1.39-3.78-2.53a6.42,6.42,0,0,1,1-5,8.11,8.11,0,0,1,4.55-2.77c7-1.46,8.9-6.54,9.56-12.61a70.71,70.71,0,0,0,.32-7.42q0-58.27,0-116.54c0-3.39-.16-6.78-.39-10.16-.43-6.42-3.58-11-9.48-13.68-2-.91-4.14-1.59-6.14-2.53-3.93-1.84-4.27-5.3-.76-7.87A23,23,0,0,1,468.05,15q11.51-5.76,23-11.51c1.51-.76,2.91-1.76,4.46-2.41,3.59-1.49,6.56.13,7.24,4a27,27,0,0,1,.2,4.68q0,30.11,0,60.23Z" transform="translate(0.05 -0.48)"/><path d="M315,141c0,9.91,0,19.82,0,29.72,0,7.08,3.09,9.68,10.1,8.72,2.2-.3,4.4-1.1,6.55-.94,1.67.12,4,1,4.67,2.21s.36,4.28-.69,5.17c-7.31,6.26-15.48,11.09-25.3,12.14-4.28.46-7.34-2-10-5.16-4.92-5.82-5-5.9-12-2.61-8.87,4.2-17.78,8-27.78,8.72-15.83,1.19-28.13-8.52-29.47-23.56-.76-8.47,2.78-14.91,9.21-20,7.92-6.29,17.21-9.71,26.78-12.38,6.52-1.82,13.18-3.1,19.75-4.73,6.16-1.53,7.85-3.52,7.87-9.77,0-5.06.24-10.25-.72-15.16a16.63,16.63,0,0,0-19.67-13.1c-2.32.45-4.7,2.27-6.34,4.1-2.05,2.28-3.41,5.2-5,7.9-3.81,6.52-9.3,10-17,9.7-3.18-.14-6-1.12-7.36-4.24-1.51-3.42-1.65-6.87.92-9.93a22.5,22.5,0,0,1,3.6-3.57c12.21-9,25.68-14.89,40.93-16a51.82,51.82,0,0,1,11.67.51c12,1.87,18.84,9.23,19.38,21.4.45,10.28.09,20.59.09,30.88Zm-20.27,21.94h.19c0-3.52,0-7,0-10.55-.07-4.21-1.76-5.9-5.91-4.94a182.2,182.2,0,0,0-21,5.92,27.29,27.29,0,0,0-9.24,6.33c-4.46,4.38-4.63,10-2.87,15.67,1.6,5.14,5.43,7.95,10.52,8.78a38.32,38.32,0,0,0,23.9-3.87,7.36,7.36,0,0,0,4.43-7.57C294.58,169.46,294.72,166.19,294.72,162.93Z" transform="translate(0.05 -0.48)"/><path d="M189,89.74q0,39.3,0,78.61c0,12.23,3.91,16.57,16.05,18.36,1.29.19,2.58.36,3.85.65,2.86.66,4.83,2.15,4.27,5.44s-3,3.93-5.88,3.75c-2.6-.17-5.2-.61-7.79-.56-12.5.23-25,.58-37.51.89-1.82.05-3.7.44-5.45.13-1.44-.26-3.76-1.21-3.86-2.08a8.25,8.25,0,0,1,1.4-5.54c1-1.29,3.06-1.93,4.78-2.44,4.9-1.45,7.21-4.89,7.83-9.68a52.43,52.43,0,0,0,.39-6.63q0-59.44,0-118.89c0-3.12-.19-6.25-.44-9.37-.66-8-4.64-13.66-12.23-16.61a28.73,28.73,0,0,1-3.24-1.35c-3.37-1.82-3.73-5.1-.81-7.59a13,13,0,0,1,2.67-1.6Q165.46,9.1,177.88,3A36.83,36.83,0,0,1,182.49.88c3.16-1.08,5.4.05,6.3,3.29a15.84,15.84,0,0,1,.45,4.24q0,40.67,0,81.33Z" transform="translate(0.05 -0.48)"/><path d="M395.3,200.36c-9.77-1.67-19.82-3.08-29.72-5.18-7.15-1.51-7.54-2.38-7.9-9.76a94.5,94.5,0,0,1,0-13.67c.19-2,2-3.84,3-5.76,1.88,1.15,4.5,1.84,5.52,3.51,9.44,15.39,23.56,19.55,40.41,17.28,5.61-.76,10.35-3.18,11.75-9.28s-.55-11.55-6-14.89c-5.64-3.47-11.66-6.3-17.5-9.44-7.11-3.81-14.36-7.38-21.26-11.53-16.08-9.68-15.15-35.91-.31-45.81a43.08,43.08,0,0,1,19.55-7.27,95,95,0,0,1,34.49,2.55c3.19.83,4.68,2.61,5.17,5.92.81,5.4,2.14,10.72,3.22,16.08.41,2.07,1.74,4.46-1.49,5.52-2.94,1-5.83,1.67-8-1.55a67.88,67.88,0,0,0-5.17-6.85C412.77,101,402.41,98.3,390.53,101c-4.83,1.08-8.87,3.31-9.72,8.83-.9,5.83.75,10.82,6.05,13.69,7.08,3.84,14.46,7.16,21.69,10.73,4.79,2.36,9.6,4.66,14.3,7.19,12,6.46,17.2,16.7,15.73,30.13s-9.93,21.28-22.13,25.06C409.82,198.63,402.7,199.09,395.3,200.36Z" transform="translate(0.05 -0.48)"/></svg>