<svg id="Layer_1" data-name="Layer 1" xmlns="http://www.w3.org/2000/svg" viewBox="0 0 681.62 415"><defs><style>.cls-1{fill:#564a4a;}.cls-10,.cls-2,.cls-4,.cls-7,.cls-8,.cls-9{fill:none;stroke-miterlimit:10;}.cls-2,.cls-7,.cls-8,.cls-9{stroke:#4aa96c;}.cls-2,.cls-4{stroke-width:9px;}.cls-3{fill:#4aa96c;}.cls-10,.cls-4{stroke:#f55c47;}.cls-5{fill:#f55c47;}.cls-6{opacity:0.41;}.cls-10,.cls-7,.cls-8,.cls-9{stroke-width:4px;}.cls-8{stroke-dasharray:8.13 8.13;}.cls-10,.cls-9{stroke-dasharray:8;}@media(prefers-color-scheme: dark){.cls-1{fill:#FFFFFF;}}</style></defs><title>hero_graphic</title><path class="cls-1" d="M351.75,161H82.25A19.26,19.26,0,0,0,63,180.25v269.5A19.26,19.26,0,0,0,82.25,469h192.5a4.81,4.81,0,0,0,0-9.62H82.25a9.64,9.64,0,0,1-9.62-9.63V209.13H361.38V449.75a9.65,9.65,0,0,1-9.63,9.63H294a4.81,4.81,0,0,0,0,9.62h57.75A19.26,19.26,0,0,0,371,449.75V180.25A19.26,19.26,0,0,0,351.75,161ZM72.63,199.5V180.25a9.62,9.62,0,0,1,9.62-9.62h269.5a9.64,9.64,0,0,1,9.63,9.62V199.5Z" transform="translate(-63 -94.71)"/><path class="cls-1" d="M183.31,440.13h67.38a4.82,4.82,0,0,0,0-9.63H183.31a4.82,4.82,0,0,0,0,9.63Z" transform="translate(-63 -94.71)"/><path class="cls-1" d="M183.31,420.88h38.5a4.82,4.82,0,1,0,0-9.63h-38.5a4.82,4.82,0,0,0,0,9.63Z" transform="translate(-63 -94.71)"/><path class="cls-1" d="M255.5,363.13a4.81,4.81,0,0,0-4.81-4.82H183.31a4.81,4.81,0,0,0-4.81,4.82V392a4.81,4.81,0,0,0,4.81,4.81h67.38A4.81,4.81,0,0,0,255.5,392Zm-9.62,24.06H188.13V367.94h57.75Z" transform="translate(-63 -94.71)"/><path class="cls-1" d="M91.88,440.13h67.37a4.82,4.82,0,0,0,0-9.63H91.88a4.82,4.82,0,1,0,0,9.63Z" transform="translate(-63 -94.71)"/><path class="cls-1" d="M91.88,420.88h38.5a4.82,4.82,0,0,0,0-9.63H91.88a4.82,4.82,0,1,0,0,9.63Z" transform="translate(-63 -94.71)"/><path class="cls-1" d="M164.06,363.13a4.81,4.81,0,0,0-4.81-4.82H91.88a4.82,4.82,0,0,0-4.82,4.82V392a4.81,4.81,0,0,0,4.82,4.81h67.37a4.81,4.81,0,0,0,4.81-4.81Zm-9.62,24.06H96.69V367.94h57.75Z" transform="translate(-63 -94.71)"/><path class="cls-1" d="M274.75,440.13h67.38a4.82,4.82,0,0,0,0-9.63H274.75a4.82,4.82,0,0,0,0,9.63Z" transform="translate(-63 -94.71)"/><path class="cls-1" d="M274.75,411.25a4.82,4.82,0,0,0,0,9.63h38.5a4.82,4.82,0,0,0,0-9.63Z" transform="translate(-63 -94.71)"/><path class="cls-1" d="M346.94,392V363.13a4.82,4.82,0,0,0-4.81-4.82H274.75a4.81,4.81,0,0,0-4.81,4.82V392a4.81,4.81,0,0,0,4.81,4.81h67.38A4.81,4.81,0,0,0,346.94,392Zm-9.63-4.81H279.56V367.94h57.75Z" transform="translate(-63 -94.71)"/><path class="cls-1" d="M100.1,181.65a4,4,0,0,0-.77-.58,2.77,2.77,0,0,0-.81-.44,3,3,0,0,0-.92-.28,4.79,4.79,0,0,0-4.33,1.3,5,5,0,0,0-1,1.58,4.62,4.62,0,0,0-.38,1.83,4.54,4.54,0,0,0,1.39,3.37,4.81,4.81,0,0,0,8.23-3.37,5.12,5.12,0,0,0-1.4-3.41Z" transform="translate(-63 -94.71)"/><path class="cls-1" d="M119.35,181.65a5.49,5.49,0,0,0-1.58-1,4.61,4.61,0,0,0-2.79-.28,2.88,2.88,0,0,0-.87.29,3.53,3.53,0,0,0-.87.43,7.94,7.94,0,0,0-.72.58,5.31,5.31,0,0,0-1,1.59,4,4,0,0,0-.38,1.82,4.77,4.77,0,0,0,4.71,4.82,4.93,4.93,0,0,0,1.93-.39,5.46,5.46,0,0,0,1.58-1,4.78,4.78,0,0,0,1-5.25A5,5,0,0,0,119.35,181.65Z" transform="translate(-63 -94.71)"/><path class="cls-1" d="M138.6,181.65a4,4,0,0,0-.77-.58,2.77,2.77,0,0,0-.81-.44,3.29,3.29,0,0,0-.92-.29,4.52,4.52,0,0,0-2.74.29,4.34,4.34,0,0,0-2.6,2.6,4.9,4.9,0,0,0,0,3.66,5.81,5.81,0,0,0,1.06,1.59,4.81,4.81,0,0,0,7.85-5.25A5.49,5.49,0,0,0,138.6,181.65Z" transform="translate(-63 -94.71)"/><path class="cls-1" d="M135.19,233.19a4.82,4.82,0,0,0,0-9.63H91.88a4.82,4.82,0,0,0-4.82,4.82v67.37a4.81,4.81,0,0,0,4.82,4.81H342.13a4.81,4.81,0,0,0,4.81-4.81V228.38a4.82,4.82,0,0,0-4.81-4.82H154.44a4.82,4.82,0,0,0,0,9.63H337.31v57.75H96.69V233.19Z" transform="translate(-63 -94.71)"/><path class="cls-1" d="M91.88,324.63H342.13a4.82,4.82,0,0,0,0-9.63H91.88a4.82,4.82,0,1,0,0,9.63Z" transform="translate(-63 -94.71)"/><path class="cls-1" d="M346.94,339.06a4.81,4.81,0,0,0-4.81-4.81H91.88a4.82,4.82,0,1,0,0,9.63H342.13A4.82,4.82,0,0,0,346.94,339.06Z" transform="translate(-63 -94.71)"/><rect class="cls-2" x="512.12" y="235.5" width="165" height="62" rx="19.85"/><path class="cls-3" d="M605.62,377.14a9.55,9.55,0,0,1-4.38-4.6,2.06,2.06,0,0,1-.2-.8,1.45,1.45,0,0,1,.44-1.06,2.16,2.16,0,0,1,1.2-.62,1.28,1.28,0,0,1,.4,0,2.16,2.16,0,0,1,1.22.38,2.32,2.32,0,0,1,.86,1,5.85,5.85,0,0,0,2.84,2.64,10.14,10.14,0,0,0,4.68,1.08,9,9,0,0,0,5.08-1.38,4.33,4.33,0,0,0,2.08-3.78,5.13,5.13,0,0,0-1.76-3.9,9.11,9.11,0,0,0-5.36-2,13.78,13.78,0,0,1-7.8-2.9,7.63,7.63,0,0,1-2.84-6.06,6.9,6.9,0,0,1,1.46-4.42,9,9,0,0,1,4-2.84,15.56,15.56,0,0,1,5.7-1,11.15,11.15,0,0,1,5.8,1.4,11.94,11.94,0,0,1,4,4,2.68,2.68,0,0,1,.48,1.44,1.72,1.72,0,0,1-.8,1.44,2,2,0,0,1-1,.28,2.19,2.19,0,0,1-1.12-.3,2,2,0,0,1-.8-.82,7.55,7.55,0,0,0-2.7-2.74,8.05,8.05,0,0,0-4.1-.94,9.1,9.1,0,0,0-4.92,1.18,3.77,3.77,0,0,0-1.88,3.42,4.37,4.37,0,0,0,1.68,3.48q1.68,1.39,6,1.84a12.5,12.5,0,0,1,7.44,2.9,8.24,8.24,0,0,1,2.64,6.38,8,8,0,0,1-1.56,4.94,9.43,9.43,0,0,1-4.14,3.08,14.94,14.94,0,0,1-5.54,1A14.36,14.36,0,0,1,605.62,377.14Z" transform="translate(-63 -94.71)"/><path class="cls-3" d="M630.9,377.9a2,2,0,0,1-.62-1.48V349.34a2,2,0,0,1,.62-1.48,2,2,0,0,1,1.46-.6,2.07,2.07,0,0,1,2.08,2.08v12l13.24-13.24a3.19,3.19,0,0,1,.86-.66,2,2,0,0,1,.86-.18,1.66,1.66,0,0,1,1.3.5,1.76,1.76,0,0,1,.46,1.22,2.5,2.5,0,0,1-.76,1.8L640.2,361l10.4,14.16a2.22,2.22,0,0,1-.12,2.7,1.67,1.67,0,0,1-1.32.62,2,2,0,0,1-1.72-.88L637.32,363.9l-2.88,2.88v9.64a2.08,2.08,0,0,1-3.54,1.48Z" transform="translate(-63 -94.71)"/><path class="cls-3" d="M657.55,377.9a2.05,2.05,0,0,1-.59-1.48V349.34a2,2,0,0,1,.59-1.5,2.07,2.07,0,0,1,1.49-.58,2,2,0,0,1,2.08,2.08v27.08a2.09,2.09,0,0,1-.58,1.48,2,2,0,0,1-1.5.6A2,2,0,0,1,657.55,377.9Z" transform="translate(-63 -94.71)"/><path class="cls-3" d="M669.69,377.9a2.09,2.09,0,0,1-.58-1.48V349.34a2,2,0,0,1,.6-1.48,2,2,0,0,1,1.44-.6,2,2,0,0,1,2.08,2.08v25h14.48a2.08,2.08,0,1,1,0,4.16H671.15A2,2,0,0,1,669.69,377.9Z" transform="translate(-63 -94.71)"/><path class="cls-3" d="M695.37,377.9a2.09,2.09,0,0,1-.58-1.48V349.34a2,2,0,0,1,.6-1.48,2,2,0,0,1,1.44-.6,2,2,0,0,1,2.08,2.08v25h14.48a2.08,2.08,0,1,1,0,4.16H696.83A2,2,0,0,1,695.37,377.9Z" transform="translate(-63 -94.71)"/><rect class="cls-2" x="466.5" y="120.79" width="165" height="62" rx="19.85"/><path class="cls-3" d="M560,262.43a9.51,9.51,0,0,1-4.38-4.6,2.26,2.26,0,0,1-.2-.8,1.51,1.51,0,0,1,.44-1.06,2.23,2.23,0,0,1,1.2-.62,1.28,1.28,0,0,1,.4,0,2.22,2.22,0,0,1,1.22.38,2.26,2.26,0,0,1,.86,1,5.9,5.9,0,0,0,2.84,2.64,10.14,10.14,0,0,0,4.68,1.08,9,9,0,0,0,5.08-1.38,4.3,4.3,0,0,0,2.08-3.78,5.13,5.13,0,0,0-1.76-3.9,9.08,9.08,0,0,0-5.36-2,13.78,13.78,0,0,1-7.8-2.9,7.64,7.64,0,0,1-2.84-6.06,7,7,0,0,1,1.46-4.42,9.09,9.09,0,0,1,4-2.84,15.77,15.77,0,0,1,5.7-1,11.22,11.22,0,0,1,5.8,1.4,11.94,11.94,0,0,1,4,4,2.74,2.74,0,0,1,.48,1.44,1.69,1.69,0,0,1-.8,1.44,1.86,1.86,0,0,1-1,.28,2.21,2.21,0,0,1-1.12-.3,2,2,0,0,1-.8-.82,7.63,7.63,0,0,0-2.7-2.74,8.05,8.05,0,0,0-4.1-.94,9.1,9.1,0,0,0-4.92,1.18,3.81,3.81,0,0,0-1.88,3.42,4.34,4.34,0,0,0,1.68,3.48c1.12.93,3.12,1.55,6,1.84a12.57,12.57,0,0,1,7.44,2.9,8.24,8.24,0,0,1,2.64,6.38,7.94,7.94,0,0,1-1.56,4.94,9.43,9.43,0,0,1-4.14,3.08,14.94,14.94,0,0,1-5.54,1A14.36,14.36,0,0,1,560,262.43Z" transform="translate(-63 -94.71)"/><path class="cls-3" d="M585.28,263.19a2,2,0,0,1-.62-1.48V234.63a2,2,0,0,1,.62-1.48,2.07,2.07,0,0,1,3.54,1.48v12l13.24-13.24a3.35,3.35,0,0,1,.86-.66,2,2,0,0,1,.86-.18,1.69,1.69,0,0,1,1.3.5,1.72,1.72,0,0,1,.46,1.22,2.46,2.46,0,0,1-.76,1.8l-10.2,10.24L605,260.47a2.22,2.22,0,0,1-.12,2.7,1.67,1.67,0,0,1-1.32.62,2,2,0,0,1-1.72-.88L591.7,249.19l-2.88,2.88v9.64a2.08,2.08,0,0,1-3.54,1.48Z" transform="translate(-63 -94.71)"/><path class="cls-3" d="M611.94,263.19a2,2,0,0,1-.6-1.48V234.63a2,2,0,0,1,.6-1.5,2.07,2.07,0,0,1,3.56,1.5v27.08a2,2,0,0,1-.58,1.48,2.15,2.15,0,0,1-3,0Z" transform="translate(-63 -94.71)"/><path class="cls-3" d="M624.08,263.19a2,2,0,0,1-.58-1.48V234.63a2,2,0,0,1,.6-1.48,2,2,0,0,1,1.44-.6,2,2,0,0,1,2.08,2.08v25H642.1a2.08,2.08,0,1,1,0,4.16H625.54A1.93,1.93,0,0,1,624.08,263.19Z" transform="translate(-63 -94.71)"/><path class="cls-3" d="M649.76,263.19a2,2,0,0,1-.58-1.48V234.63a2,2,0,0,1,.6-1.48,2,2,0,0,1,1.44-.6,2,2,0,0,1,2.08,2.08v25h14.48a2.08,2.08,0,1,1,0,4.16H651.22A1.93,1.93,0,0,1,649.76,263.19Z" transform="translate(-63 -94.71)"/><rect class="cls-4" x="336.5" y="4.5" width="329" height="62" rx="14.12"/><path class="cls-5" d="M435,146.9a2,2,0,0,1-.6-1.48V118.34a2,2,0,0,1,.6-1.5,2,2,0,0,1,1.48-.58h18.08a2.06,2.06,0,0,1,1.48.54,1.89,1.89,0,0,1,.56,1.42,1.79,1.79,0,0,1-.56,1.36,2.14,2.14,0,0,1-1.48.52h-16v9.72H450a2.08,2.08,0,0,1,1.46.54,1.93,1.93,0,0,1,0,2.76,2.08,2.08,0,0,1-1.46.54H438.53v10h16a2.09,2.09,0,0,1,1.48.52,1.77,1.77,0,0,1,.56,1.36A1.91,1.91,0,0,1,456,147a2.06,2.06,0,0,1-1.48.54H436.45A2,2,0,0,1,435,146.9Z" transform="translate(-63 -94.71)"/><path class="cls-5" d="M484.65,144.14a2.37,2.37,0,0,1,.44,1.36,2.11,2.11,0,0,1-.52,1.4,1.77,1.77,0,0,1-1.4.6,2,2,0,0,1-1.6-.76l-8.68-12-9.2,12.2a2,2,0,0,1-1.44.6,1.76,1.76,0,0,1-1.38-.56,2,2,0,0,1-.5-1.36,2.31,2.31,0,0,1,.48-1.44l9.32-12.4-8.8-12.2a2,2,0,0,1-.4-1.24,2.11,2.11,0,0,1,.52-1.44,1.74,1.74,0,0,1,1.4-.6,1.73,1.73,0,0,1,1.48.6l8.6,11.92,9-11.92a1.91,1.91,0,0,1,1.48-.6,1.7,1.7,0,0,1,1.34.56,2,2,0,0,1,.5,1.36,2.54,2.54,0,0,1-.44,1.36l-9.12,12.16Z" transform="translate(-63 -94.71)"/><path class="cls-5" d="M491.61,146.9a2,2,0,0,1-.6-1.48V118.34a2,2,0,0,1,.6-1.5,2,2,0,0,1,1.48-.58h8a10.61,10.61,0,0,1,5.3,1.32,9.27,9.27,0,0,1,3.64,3.68,11,11,0,0,1,1.3,5.36,10.4,10.4,0,0,1-1.3,5.2,9.23,9.23,0,0,1-3.64,3.56,10.91,10.91,0,0,1-5.3,1.28h-5.92v8.76a2.09,2.09,0,0,1-.58,1.48,2.15,2.15,0,0,1-3,0Zm9.48-14.08a6.12,6.12,0,0,0,4.48-1.74,6,6,0,0,0,1.76-4.46,6.49,6.49,0,0,0-1.76-4.68,5.93,5.93,0,0,0-4.48-1.84h-5.92v12.72Z" transform="translate(-63 -94.71)"/><path class="cls-5" d="M516.52,146.9a2.06,2.06,0,0,1-.6-1.48V118.34a2,2,0,0,1,.6-1.5,2,2,0,0,1,1.48-.58h18.08a2,2,0,0,1,1.48.54,1.86,1.86,0,0,1,.57,1.42,1.76,1.76,0,0,1-.57,1.36,2.1,2.1,0,0,1-1.48.52h-16v9.72h11.48a2,2,0,0,1,1.46.54,1.93,1.93,0,0,1,0,2.76,2,2,0,0,1-1.46.54H520.08v10h16a2.06,2.06,0,0,1,1.48.52,1.74,1.74,0,0,1,.57,1.36,1.88,1.88,0,0,1-.57,1.42,2,2,0,0,1-1.48.54H518A2,2,0,0,1,516.52,146.9Z" transform="translate(-63 -94.71)"/><path class="cls-5" d="M564.6,145.62a1.82,1.82,0,0,1-.54,1.34,2,2,0,0,1-1.46.54,2,2,0,0,1-1.8-1l-6.88-11h-5.84v10a2,2,0,0,1-.58,1.48,2,2,0,0,1-1.5.6,2,2,0,0,1-1.48-.6,2.06,2.06,0,0,1-.6-1.48V118.34a2,2,0,0,1,.6-1.5,2,2,0,0,1,1.48-.58h7.21a11.07,11.07,0,0,1,5.29,1.24,8.85,8.85,0,0,1,3.64,3.48,10,10,0,0,1,1.3,5.12,8.93,8.93,0,0,1-5.36,8.36l6.13,9.84A2.47,2.47,0,0,1,564.6,145.62Zm-11.39-14a6.56,6.56,0,0,0,4.47-1.54,5,5,0,0,0,1.76-4,5.68,5.68,0,0,0-1.76-4.32,6.2,6.2,0,0,0-4.47-1.68h-5.13v11.52Z" transform="translate(-63 -94.71)"/><path class="cls-5" d="M569.8,146.9a2,2,0,0,1-.6-1.48V118.34a2,2,0,0,1,.6-1.5,2,2,0,0,1,1.48-.58,2,2,0,0,1,2.08,2.08v27.08a2,2,0,0,1-.58,1.48,2,2,0,0,1-1.5.6A2,2,0,0,1,569.8,146.9Z" transform="translate(-63 -94.71)"/><path class="cls-5" d="M582,146.9a2,2,0,0,1-.6-1.48V118.34a2,2,0,0,1,.6-1.5,2,2,0,0,1,1.48-.58h18.08a2,2,0,0,1,1.48.54,1.85,1.85,0,0,1,.56,1.42,1.75,1.75,0,0,1-.56,1.36,2.1,2.1,0,0,1-1.48.52h-16v9.72H597a2,2,0,0,1,1.46.54,1.93,1.93,0,0,1,0,2.76,2,2,0,0,1-1.46.54H585.52v10h16a2.06,2.06,0,0,1,1.48.52,1.74,1.74,0,0,1,.56,1.36A1.87,1.87,0,0,1,603,147a2,2,0,0,1-1.48.54H583.44A2,2,0,0,1,582,146.9Z" transform="translate(-63 -94.71)"/><path class="cls-5" d="M609.94,146.92a2.07,2.07,0,0,1-.58-1.5V118.34a2,2,0,0,1,.58-1.5,2,2,0,0,1,1.46-.58,1.88,1.88,0,0,1,.88.22,2,2,0,0,1,.72.54l17.44,23.2V118.34a2,2,0,0,1,.6-1.5,2,2,0,0,1,1.48-.58,2,2,0,0,1,1.46.58,2,2,0,0,1,.58,1.5v27.08a2,2,0,0,1-.58,1.5,2,2,0,0,1-1.46.58,2.49,2.49,0,0,1-.9-.18,1.48,1.48,0,0,1-.7-.54l-17.44-23.2v21.84a2,2,0,0,1-.58,1.48,2,2,0,0,1-1.5.6A2,2,0,0,1,609.94,146.92Z" transform="translate(-63 -94.71)"/><path class="cls-5" d="M648.74,145.78a15.32,15.32,0,0,1-5.58-5.8,16.48,16.48,0,0,1-2-8.12,16.26,16.26,0,0,1,2-8.06,15.39,15.39,0,0,1,5.58-5.8,14.81,14.81,0,0,1,7.82-2.14,15.36,15.36,0,0,1,5.26.8,15.61,15.61,0,0,1,4.5,2.64,1.79,1.79,0,0,1,.64.74,2.23,2.23,0,0,1,.16.9,1.69,1.69,0,0,1-.58,1.32,2,2,0,0,1-1.34.52,2.23,2.23,0,0,1-1.4-.52,11.36,11.36,0,0,0-3.2-2,10.92,10.92,0,0,0-4-.62,10.56,10.56,0,0,0-5.74,1.64,11.92,11.92,0,0,0-4.16,4.46,13.05,13.05,0,0,0,0,12.3,12.08,12.08,0,0,0,4.16,4.44,10.65,10.65,0,0,0,5.74,1.64,12.08,12.08,0,0,0,7.36-2.64,2.33,2.33,0,0,1,1.32-.48,1.63,1.63,0,0,1,1.26.54,2,2,0,0,1,.5,1.42,2,2,0,0,1-.64,1.48,15.19,15.19,0,0,1-9.8,3.48A15,15,0,0,1,648.74,145.78Z" transform="translate(-63 -94.71)"/><path class="cls-5" d="M674.24,146.9a2,2,0,0,1-.6-1.48V118.34a2,2,0,0,1,.6-1.5,2,2,0,0,1,1.48-.58H693.8a2,2,0,0,1,1.48.54,1.85,1.85,0,0,1,.56,1.42,1.75,1.75,0,0,1-.56,1.36,2.1,2.1,0,0,1-1.48.52h-16v9.72h11.48a2,2,0,0,1,1.46.54,1.93,1.93,0,0,1,0,2.76,2,2,0,0,1-1.46.54H677.8v10h16a2.06,2.06,0,0,1,1.48.52,1.74,1.74,0,0,1,.56,1.36,1.87,1.87,0,0,1-.56,1.42,2,2,0,0,1-1.48.54H675.72A2,2,0,0,1,674.24,146.9Z" transform="translate(-63 -94.71)"/><rect class="cls-2" x="404.12" y="348.5" width="165" height="62" rx="19.85"/><path class="cls-3" d="M497.62,488.14a9.55,9.55,0,0,1-4.38-4.6,2.06,2.06,0,0,1-.2-.8,1.45,1.45,0,0,1,.44-1.06,2.16,2.16,0,0,1,1.2-.62,1.28,1.28,0,0,1,.4,0,2.16,2.16,0,0,1,1.22.38,2.32,2.32,0,0,1,.86,1,5.85,5.85,0,0,0,2.84,2.64,10.14,10.14,0,0,0,4.68,1.08,9,9,0,0,0,5.08-1.38,4.33,4.33,0,0,0,2.08-3.78,5.13,5.13,0,0,0-1.76-3.9,9.11,9.11,0,0,0-5.36-2,13.78,13.78,0,0,1-7.8-2.9,7.63,7.63,0,0,1-2.84-6.06,6.9,6.9,0,0,1,1.46-4.42,9,9,0,0,1,4-2.84,15.56,15.56,0,0,1,5.7-1,11.15,11.15,0,0,1,5.8,1.4,11.94,11.94,0,0,1,4,4,2.68,2.68,0,0,1,.48,1.44,1.72,1.72,0,0,1-.8,1.44,2,2,0,0,1-1,.28,2.19,2.19,0,0,1-1.12-.3,2,2,0,0,1-.8-.82,7.55,7.55,0,0,0-2.7-2.74,8.05,8.05,0,0,0-4.1-.94,9.1,9.1,0,0,0-4.92,1.18,3.77,3.77,0,0,0-1.88,3.42,4.37,4.37,0,0,0,1.68,3.48q1.68,1.39,6,1.84a12.5,12.5,0,0,1,7.44,2.9,8.24,8.24,0,0,1,2.64,6.38,8,8,0,0,1-1.56,4.94,9.43,9.43,0,0,1-4.14,3.08,14.94,14.94,0,0,1-5.54,1A14.36,14.36,0,0,1,497.62,488.14Z" transform="translate(-63 -94.71)"/><path class="cls-3" d="M522.9,488.9a2,2,0,0,1-.62-1.48V460.34a2,2,0,0,1,.62-1.48,2,2,0,0,1,1.46-.6,2.07,2.07,0,0,1,2.08,2.08v12l13.24-13.24a3.19,3.19,0,0,1,.86-.66,2,2,0,0,1,.86-.18,1.66,1.66,0,0,1,1.3.5,1.76,1.76,0,0,1,.46,1.22,2.5,2.5,0,0,1-.76,1.8L532.2,472l10.4,14.16a2.22,2.22,0,0,1-.12,2.7,1.67,1.67,0,0,1-1.32.62,2,2,0,0,1-1.72-.88L529.32,474.9l-2.88,2.88v9.64a2.08,2.08,0,0,1-3.54,1.48Z" transform="translate(-63 -94.71)"/><path class="cls-3" d="M549.55,488.9a2.05,2.05,0,0,1-.59-1.48V460.34a2,2,0,0,1,.59-1.5,2.07,2.07,0,0,1,1.49-.58,2,2,0,0,1,2.08,2.08v27.08a2.09,2.09,0,0,1-.58,1.48,2,2,0,0,1-1.5.6A2,2,0,0,1,549.55,488.9Z" transform="translate(-63 -94.71)"/><path class="cls-3" d="M561.69,488.9a2.09,2.09,0,0,1-.58-1.48V460.34a2,2,0,0,1,.6-1.48,2,2,0,0,1,1.44-.6,2,2,0,0,1,2.08,2.08v25h14.48a2.08,2.08,0,1,1,0,4.16H563.15A2,2,0,0,1,561.69,488.9Z" transform="translate(-63 -94.71)"/><path class="cls-3" d="M587.37,488.9a2.09,2.09,0,0,1-.58-1.48V460.34a2,2,0,0,1,.6-1.48,2,2,0,0,1,1.44-.6,2,2,0,0,1,2.08,2.08v25h14.48a2.08,2.08,0,1,1,0,4.16H588.83A2,2,0,0,1,587.37,488.9Z" transform="translate(-63 -94.71)"/><g class="cls-6"><path class="cls-7" d="M235,435a16.27,16.27,0,0,0,.4,4" transform="translate(-63 -94.71)"/><path class="cls-8" d="M239,446.17c27,33.29,181.25,27.64,218.42,25.78" transform="translate(-63 -94.71)"/><path class="cls-7" d="M461.51,471.73l4-.23" transform="translate(-63 -94.71)"/><path class="cls-9" d="M308.5,339.5s137,36,270,19" transform="translate(-63 -94.71)"/><path class="cls-9" d="M194.5,319.5s127-112,338-87" transform="translate(-63 -94.71)"/><path class="cls-10" d="M126,315S239.5,151.5,406.5,127" transform="translate(-63 -94.71)"/></g><rect class="cls-5" x="39" y="220.29" width="37" height="10" rx="4.74"/><rect class="cls-3" x="113" y="220.29" width="37" height="10" rx="4.74"/><rect class="cls-3" x="227" y="239.29" width="37" height="10" rx="4.74"/><rect class="cls-3" x="156" y="335.29" width="37" height="10" rx="4.74"/></svg>
