<svg id="Layer_1" data-name="Layer 1" xmlns="http://www.w3.org/2000/svg" viewBox="0 0 599.24 127.25"><defs><style>.cls-1{fill:#049548;}</style></defs><title>nginx</title><path class="cls-1" d="M29,43.11q0,31.07,0,62.14a91.55,91.55,0,0,1-.21,9.52c-.73,7-5.44,11.1-12.9,11.42-7.71.33-13.52-3.85-14.77-10.7a22.21,22.21,0,0,1-.31-4c0-30.11-.13-60.22,0-90.33C.9,8.39,7.7,1.52,19.2,2c6.77.28,11.94,3.46,16.23,8.68Q65.19,46.91,95.16,83c1,1.26,2.17,2.45,4.17,4.7.14-2.86.28-4.55.28-6.25,0-21.74-.19-43.49,0-65.23.12-11.51,8.64-17,19.45-13.31a10.74,10.74,0,0,1,7.65,9,54.73,54.73,0,0,1,.57,8.49q0,43.65-.06,87.31c0,.5,0,1,0,1.51-.25,13.46-8.54,20-21.58,16.18-4.46-1.29-9.3-3.7-12.31-7.07-11.57-13-22.51-26.49-33.62-39.86C49.83,66.58,40,54.59,30.14,42.63Z" transform="translate(-0.76 0.17)"/><path class="cls-1" d="M237.89,84.81c-10.78,0-20.41.06-30,0a65.3,65.3,0,0,1-11.46-.72,11.72,11.72,0,0,1-9.88-11.65c0-5.06,3.53-9.6,9.1-11.24a23.13,23.13,0,0,1,6.4-1q36.38,0,72.74.13c.61,0,1.21.09,2.55.21-5.09,9.43-9.89,18.35-14.72,27.26-6.22,11.45-12.51,22.87-18.65,34.37-1.32,2.48-2.83,3.54-5.82,3.52q-31.61-.22-63.21,0c-3.26,0-5.12-1-6.7-3.88C158,103.19,147.57,84.71,137.39,66.1a6.08,6.08,0,0,1,.08-5Q152.2,33.48,167.34,6.06a6.77,6.77,0,0,1,5-2.85q33.36-.27,66.73,0c1.69,0,4.14.89,4.93,2.17,8.19,13.2,16.11,26.56,24.09,39.89.4.67.7,1.4,1.53,3.07-9.36,0-18,.1-26.56-.12-1.08,0-2.38-1.58-3.13-2.72-3.09-4.76-6.11-9.58-8.95-14.5a6.94,6.94,0,0,0-6.84-3.91q-16.81.29-33.62,0c-3.85-.07-6,1.3-7.79,4.74C177.41,42.05,171.63,52,166.29,62.24a6.73,6.73,0,0,0,0,5.42c6,11.2,12.29,22.22,18.3,33.4,1.4,2.61,3.11,3.42,5.95,3.38,10.7-.14,21.4,0,32.1-.12,1.38,0,3.42-.28,4-1.18C230.38,97.47,233.78,91.6,237.89,84.81Z" transform="translate(-0.76 0.17)"/><path class="cls-1" d="M365.32,85.93q8.74-10.29,17.46-20.58,23.4-27.81,46.77-55.66c5.13-6.1,11.86-8,19.42-6.58,9.08,1.67,13.32,6.69,13.37,16,.14,29.44.1,58.87.1,88.31a47.19,47.19,0,0,1-.47,8c-1,6-5.64,9.36-12.79,9.65s-12.74-3.1-14.1-8.77a32,32,0,0,1-.72-7.45c-.06-20.41,0-40.81-.05-61.21,0-1.33-.11-2.65-.23-5.36-2.74,3-4.86,5.13-6.78,7.43q-26.35,31.58-52.62,63.21c-6,7.25-12.83,12.54-22.92,12.15-10.28-.39-15.14-4.88-15.18-15.17q-.15-46.66,0-93.32c0-9.35,4.76-13.86,14-13.83,8.7,0,13.27,4.6,13.32,13.9.11,21.24,0,42.48,0,63.72v5.32Z" transform="translate(-0.76 0.17)"/><path class="cls-1" d="M515.19,64c-7.38-7.23-14.69-14.29-21.89-21.46-4.38-4.35-8.6-8.87-12.87-13.33a14,14,0,0,1-1.57-1.95c-5.06-7.5-5.12-16.19-.15-21.32s13.38-5.69,20.73-.33c6.15,4.49,11.48,10.17,16.89,15.61,6.82,6.86,13.35,14,20.44,21.49,4.9-4.8,8.92-8.7,12.9-12.64,7-6.95,13.6-14.37,21.11-20.71a31.91,31.91,0,0,1,14.45-7,12.53,12.53,0,0,1,14.36,15.54,35.82,35.82,0,0,1-8,14.55C582.68,42.14,573,51.16,563.66,60.5c-1.16,1.16-2.23,2.43-4.2,4.61,8.38,8.08,16.67,16,24.9,24,3.24,3.15,6.51,6.28,9.5,9.65,4.24,4.78,7,10.24,5.87,16.91-1.28,7.63-7.8,12.86-15.2,10.77a37.41,37.41,0,0,1-15-8.18c-10.81-10.15-20.84-21.13-32-32.57-7.5,7.78-14.18,14.74-20.91,21.66-3.84,4-7.47,8.2-11.72,11.67A45.07,45.07,0,0,1,493,126.12c-5.38,2.08-10.66.73-14.65-3.66s-4.49-9.86-2.26-15a38.55,38.55,0,0,1,7.36-11.14c9.44-9.93,19.28-19.48,29-29.19C513.25,66.31,514,65.41,515.19,64Z" transform="translate(-0.76 0.17)"/><path class="cls-1" d="M293.23,60.84h24.4c0,8,0,15.7,0,23.34,0,9.7.19,19.4-.11,29.09-.26,8.3-5.48,13.73-12.39,13.65-6.52-.09-11.65-5.2-11.8-13.13C293,96.27,293.23,78.73,293.23,60.84Z" transform="translate(-0.76 0.17)"/><path class="cls-1" d="M317.44,47.88H293.13c0-4.52,0-8.78,0-13,0-7.51-.08-15,.18-22.53A12.21,12.21,0,0,1,300.5,1.1c4.11-1.95,8.57-1.79,11.7,1.37,2.42,2.43,4.84,6.08,5,9.29C317.79,23.56,317.44,35.41,317.44,47.88Z" transform="translate(-0.76 0.17)"/></svg>