<svg id="Layer_1" data-name="Layer 1" xmlns="http://www.w3.org/2000/svg" viewBox="0 0 599.04 227.86"><defs><style>.cls-1{fill:#3770a0;}</style></defs><title>python</title><path class="cls-1" d="M19.13,165.63c0,18.17.22,35.2-.22,52.21-.08,2.94,3.28,9.92-3.16,8.72-5.26-1-14.33,0-14.52-9.84,0-1.65,0-3.3,0-4.94,0-40.91.13-81.81-.13-122.71,0-6.27,1.77-10.71,6.86-14.2,16.37-11.2,34.59-14.78,53.74-11.33C76.82,66.26,85.06,77.71,90,91.33a81.13,81.13,0,0,1,1.81,50.58c-8,28-33.82,39.92-60.9,28.86C27.32,169.32,23.83,167.7,19.13,165.63Zm0-49.25c0,9.89,0,19.78,0,29.68,0,2.91-.55,6.1,2.67,7.91,10.22,5.74,20.67,10.53,32.79,6.58,11.56-3.77,15.7-13.19,17.82-24a94.35,94.35,0,0,0,.42-33.39C68.65,76.73,54.42,68.5,29.21,77.49,21.55,80.23,18.09,84.21,19,92.66,19.77,100.49,19.14,108.47,19.14,116.38Z" transform="translate(-1.09 0.27)"/><path class="cls-1" d="M187,166.3c-12.26,4.78-24,7.8-36.34,7.9-22.69.19-36.59-13.29-36.68-35.87-.08-18.16,0-36.32,0-54.48C114,67,114,67,131.86,63.14c0,22.55.13,44.91-.05,67.27-.09,11.73,1,22.83,13.26,28.52,13.32,6.21,25.68,2.38,37.67-4.41,4.13-2.34,3.42-6,3.42-9.52,0-23.77.37-47.55-.17-71.32-.18-7.79,2.48-9.26,9.58-9.17,6.65.08,9.17,1.51,9,8.71-.84,35.31.44,70.62-1,105.94-1.19,29.56-15.84,44.37-52.58,48.36-5.62.6-6.74-2.55-7.32-6.87-.72-5.29,3.23-4.64,6.37-5.17,2.93-.49,5.84-1.09,8.74-1.72,19.57-4.24,26.9-12.61,28.15-32.43C187.24,176.75,187,172.12,187,166.3Z" transform="translate(-1.09 0.27)"/><path class="cls-1" d="M312.65-.27c0,23.82.19,44.88-.1,65.93-.11,7.68.2,11.4,9,5.8,9.35-5.92,20.23-7.63,31.4-7,15.74.86,28.45,12.57,28.83,28.38.58,24.42,0,48.87.35,73.3.12,8-5.13,5.83-9.32,6.08-4.77.28-9,.69-8.84-6.7.43-20.46.14-40.94.15-61.41,0-4.64-.19-9.18-2-13.61-4.35-11-12.89-15.83-24.33-13.26a81.81,81.81,0,0,0-9.34,3.22c-11.31,4-17.26,10.45-16.27,24.07,1.46,20,0,40.26.57,60.39.23,7.91-4,7.34-9.18,7.39-5.37.05-9.16.16-9.1-7.55q.54-75.28.08-150.57C294.58,1.05,306.11,6.54,312.65-.27Z" transform="translate(-1.09 0.27)"/><path class="cls-1" d="M399.59,116.86c-.33-33.76,20.21-55.4,51.28-54.4,20.46.66,37.83,14.63,43.76,35.56a70.84,70.84,0,0,1-.63,41c-7.87,25.22-27.53,37.79-53.83,34.84-21-2.35-38.28-21.92-40.54-46.15C399.3,124.15,399.59,120.49,399.59,116.86Zm77.54.63a50.12,50.12,0,0,0-5.42-27.68c-5.5-10.22-14-15.7-25.73-15s-20.2,6.82-23.77,17.84c-5.87,18.09-5.56,36.43,2,54.08,5.11,12,13.24,16.5,25.69,16,12.1-.48,19.31-7.17,23.43-18C476.51,136.3,477.45,127.52,477.13,117.49Z" transform="translate(-1.09 0.27)"/><path class="cls-1" d="M512.9,124.81c0-12.21.35-24.44-.15-36.63-.25-6.13,2.09-9.61,7.06-12.73,15.63-9.79,32.43-14.45,50.85-12.72,18.86,1.77,29.22,13.06,29.24,31.82,0,23.44-.36,46.88.22,70.31.19,7.84-3.8,7.5-9.07,7.4-5-.09-9.49.92-9.25-7.23.63-21.1.17-42.24.23-63.37,0-10.94-2.62-20.66-13.73-25.09-12.22-4.88-24-2.34-34.93,4.39-3.46,2.12-2.54,5.79-2.54,9,0,24.43-.22,48.86.11,73.28.09,6.47-1,9.44-8.45,9.21-6.73-.2-10.25-.9-9.78-9C513.44,150.59,512.9,137.68,512.9,124.81Z" transform="translate(-1.09 0.27)"/><path class="cls-1" d="M235.76,115.17c0-10.55-.14-21.1.06-31.65.09-4.64-.69-7.85-6.35-7.13-4.77.6-6.23-1.66-6.24-6.3s2.19-5.8,6.06-5.31c5.45.69,6.8-2,6.54-6.88-.3-5.59.13-11.22-.13-16.81-.19-4.19,1.2-6.42,5.33-8.08,13.05-5.26,13-5.48,13,8.7v7.91c0,14.31,0,14.49,14,15,4.44.17,6.49,1.06,6.46,6,0,5.27-2.73,5.62-6.86,5.77C254,77,254,77.11,254,91.05c0,17.15-.07,34.29,0,51.44.09,15.12,1.6,17.38,16,21.29,4,1.1,4.29,3.14,4.28,6.32,0,4-2.82,3.58-5.45,3.8-20,1.68-32.8-9.89-33.09-30C235.65,134.3,235.76,124.73,235.76,115.17Z" transform="translate(-1.09 0.27)"/></svg>