<svg id="Layer_1" data-name="Layer 1" xmlns="http://www.w3.org/2000/svg" viewBox="0 0 598.18 188.42"><defs><style>.cls-1{fill:#08a3d6;}.cls-2{fill:#10a3d6;}</style></defs><title>spaCy</title><path class="cls-1" d="M386.46,72.3c.13,13,1,22.85,5,32.13q7.8,18.15,27.47,20.26c10.63,1.16,20.42-.64,28.74-7.78,5.21-4.49,8.53-10.3,10.95-16.66a30.94,30.94,0,0,1,2.74-5.93c3.38-5.25,8.74-7.6,13.94-6.1a13.88,13.88,0,0,1,9.92,13.15A41.14,41.14,0,0,1,474,129.21c-9.48,10.37-21.43,16.32-35.1,18.76a77,77,0,0,1-44.64-4.77c-13.55-5.81-22.65-16.18-28.74-29.38-11.07-24-12-48.57-2.72-73.12C371.44,18,388.45,4.88,412.4,1.05c19.67-3.15,38.14.14,54.68,11.67,9,6.26,15.28,14.59,17,25.73.62,3.9.85,7.85-1.24,11.53-4.47,7.91-16,8.43-21.06.88-3.11-4.68-5.42-9.85-8.75-14.41-7.74-10.59-18.51-13.88-31-13-19.27,1.42-29.45,15.14-33.46,32.16A74.07,74.07,0,0,0,386.46,72.3Z" transform="translate(-0.52 0.08)"/><path class="cls-1" d="M140,131.56V134q0,18.39,0,36.78a29.63,29.63,0,0,1-1.44,9.66c-2,5.85-6.34,8.32-13.34,7.67-5.57-.52-8.87-3.84-9.89-9.69a50.68,50.68,0,0,1-.51-8.78q0-57.06,0-114.12a27.33,27.33,0,0,1,.54-6.5c1.43-6,5.34-9.3,11.35-9.52A11.93,11.93,0,0,1,139,48.27a26.54,26.54,0,0,1,1,8.95c1.1-.16,1.35-1,1.8-1.5,6.45-7.62,14-13.54,24.11-15.36,20.13-3.59,38.45,5,47.16,23.58,10,21.33,9.71,43-1.88,63.79-7.54,13.51-19.87,20-35.28,20.58C161.16,148.9,149.17,143.69,140,131.56Zm1.08-38.06c.23,7.45,1.15,14.66,4.67,21.27,4.46,8.34,11.4,12.71,20.93,12.87s16.2-4.2,20.55-12.4a42.7,42.7,0,0,0,4.51-17.91c.52-9.19-.67-18-5.13-26.3-8.81-16.31-31.7-14.17-39.63-1C142.55,77.3,141.39,85.31,141.08,93.5Z" transform="translate(-0.52 0.08)"/><path class="cls-2" d="M333.56,98.24c-1.05,10.46.75,22.69,3.72,34.83,1.54,6.29-.16,10.42-4.81,13a12.38,12.38,0,0,1-15.3-1.84,40.94,40.94,0,0,1-7.14-9.08c-1-1.63-1.68-1.55-3-.46-8.71,7-18.46,11.62-29.64,12.8-11,1.16-21.64.21-31-6.69-15-11.11-15.64-37.5,4.56-48,6.29-3.27,13.17-4.4,19.92-6q17.1-4.14,34.26-8.11c1.47-.35,2.08-1,2-2.57a37,37,0,0,0-.84-6.73c-1.71-6.77-6.19-10.39-14.36-11.22a47.06,47.06,0,0,0-13.55.54,23,23,0,0,0-15.69,10.81c-.77,1.2-1.47,2.44-2.19,3.68-3,5.22-6.88,6.74-12.69,5-5.5-1.64-8.33-5.81-8.05-11.52.49-9.93,6.16-16.19,14.48-20.52,7.09-3.7,14.81-5.36,22.7-6.09,10.74-1,21.48-.88,32,1.74,14.26,3.54,22,12.58,23.74,27.17C333.76,78.05,333.39,87.11,333.56,98.24ZM307,101c0-1.6,0-3.19,0-4.78,0-1-.34-1.3-1.36-1-1.91.6-3.86,1.12-5.8,1.63-9.14,2.42-18.4,4.38-27.58,6.61-5.56,1.35-9.7,4.89-10.61,10.85s2.21,10.25,7,13.5c4.44,3,9.43,3.13,14.52,2.81,11.81-.75,19.68-7.14,22.53-18.45A41.83,41.83,0,0,0,307,101Z" transform="translate(-0.52 0.08)"/><path class="cls-1" d="M550.24,119.14c3-8.28,5.92-16.14,8.74-24,5.55-15.47,11.51-30.79,16.55-46.45,2.42-7.5,7.59-10.33,15-8.72,5.48,1.2,9.18,7.12,8,13-1.31,6.44-3.82,12.5-6.16,18.61q-16.93,44.31-33.87,88.61a67.4,67.4,0,0,1-8.11,15.59c-5.76,8-13.94,11.41-23.33,12.16-6.77.54-13.61.71-20.31-.92-6.12-1.48-9.2-5.08-9.22-10.6s3.56-9.06,9.34-9.49a36.59,36.59,0,0,1,8.74.81c5.59.89,10.13-.77,13.59-5.21,3.88-5,5.34-11.16,8.05-16.73.37-.77-.11-1.47-.39-2.16q-17.1-42.22-34.19-84.44c-1.15-2.86-2.42-5.71-1.77-9,1.05-5.32,4.74-9.29,9.77-10.28q9-1.79,13.83,5.33a28.7,28.7,0,0,1,3.2,7.1q11,32.53,21.9,65.1C549.67,117.87,549.86,118.25,550.24,119.14Z" transform="translate(-0.52 0.08)"/><path class="cls-2" d="M45.79,147.85c-11.29,0-22.29-1.51-32.3-7.18-7.1-4-11.7-9.88-12.83-18.22-.77-5.69,1.67-10.39,6.77-12.38a11.41,11.41,0,0,1,14.06,4.62c1.11,1.78,2.11,3.63,3.25,5.39a21.6,21.6,0,0,0,16,10.16c5.87.78,11.72,1,17.4-1.07,4.13-1.49,7.71-3.71,8.25-8.54.6-5.39-1.72-9.44-6.39-12.15s-10-3.72-15.21-5.08c-8.75-2.31-17.58-4.37-25.88-8.13C8.4,90.48,2.7,82.23,2,70.76S7.3,51.29,17,46.06c10.74-5.76,22.35-7.31,34.4-6.28,8.83.75,17.21,2.87,24.69,7.77,5.44,3.55,9.42,8.28,11,14.78,1,4-.48,7.09-3.54,9.51a12.16,12.16,0,0,1-13.69.92c-3.2-1.82-5.63-4.49-8-7.21-3.8-4.34-7.76-8.49-13.91-9.26a27.77,27.77,0,0,0-14.81,1.8c-3.78,1.65-6.27,4.41-6.56,8.77-.31,4.51,2,7.49,5.63,9.63,5.76,3.39,12.33,4.2,18.67,5.74,9.38,2.28,18.68,4.81,27.41,9,7.28,3.51,12.66,8.82,13.75,17.12,2.18,16.54-4.7,30.24-21.73,36A75.66,75.66,0,0,1,45.79,147.85Z" transform="translate(-0.52 0.08)"/></svg>