<svg id="Layer_1" data-name="Layer 1" xmlns="http://www.w3.org/2000/svg" viewBox="0 0 356.53 61.75"><defs><style>
	.cls-1{fill:#564a4a;}
	@media (prefers-color-scheme: dark) {
        .cls-1{fill:#FFFFFF;}
	}
</style></defs><title>holbie</title><path class="cls-1" d="M46.7,97.46H23.64c4.22-2.07,4.75-5.68,4.87-9.58C29,73.05,29,58.23,28.22,43.4a7.35,7.35,0,0,0-4.55-6.88H46.74c-4.63,1.77-4.92,5.55-4.87,9.69.06,6,0,12-.26,18-.1,3.06,1,3.76,3.82,2.78,5.82-2,11.68-3.94,17.58-5.7,2.35-.7,3.2-1.94,3.1-4.31-.17-4-.14-8-.17-12,0-3.74-.67-7.07-5.1-8.51h25c-6.77,1.94-6.55,6.42-6.59,10.62q-.17,19.75-.09,39.5c0,4.24-.35,8.89,5.2,10.87H60.88c5.2-2.24,5.24-6.61,5.19-11.14-.08-6,0-12,.05-18,0-2.6-.55-3.7-3.45-2.69-6,2.09-12,4-18.07,5.81-2.36.71-3.08,2.11-3,4.42.16,4.16.16,8.33.22,12.49,0,3.82.17,7.58,6,8Z" transform="translate(-23.64 -36.38)"/><path class="cls-1" d="M358.73,97.55H340.9c3.46-2.42,3.26-5.14,3-7.72-.71-7.68,1.91-15.63-1.88-23.07-.8-1.55.5-2.07,1.56-2.5,2.46-1,5-1.77,7.43-2.91,3.26-1.55,5.5-1.72,5,3.41,2.62-1.4,4.69-2.7,6.92-3.66,7.58-3.28,13.93.55,14.33,8.81.3,6.48.08,13,.2,19.47.05,2.72-.4,5.6,2.71,8.15a96.44,96.44,0,0,1-15.93.06,55,55,0,0,0-.1-27c-.69-2.73-3.06-3.86-5.88-3.54-3.46.4-2.27,3.19-2.32,5.08-.14,6.15-.07,12.31,0,18.47C355.92,92.85,355.53,95.22,358.73,97.55Z" transform="translate(-23.64 -36.38)"/><path class="cls-1" d="M129.7,97.72c3.46-2.65,3.2-5.32,3.2-7.94,0-13.32,0-26.65,0-40,0-1.48.22-3.36-.55-4.37-4-5.25.14-5.64,3.62-6.69,8.88-2.66,8.87-2.7,8.87,6.47q0,22.23,0,44.47c0,2.57-.59,5.29,2.32,7.67C141.31,98.19,136.38,97.77,129.7,97.72Z" transform="translate(-23.64 -36.38)"/><path class="cls-1" d="M294.27,89.05c-4,6-8.46,9.16-14.92,8.94s-9.75-3.31-9.84-10c-.1-6.83.08-13.66.11-20.49,0-1.49-.36-3.05-.05-4.47.44-2-3.67-3.46-1.2-5,3.48-2.16,7.54-3.46,11.46-4.81,1.22-.43,1.5,1.17,1.38,2.1-.57,4.5,2.17,4.56,5.51,4.67,2.17.07,6.19-1.62,6.23,1.49.05,3.66-4.18,2.35-6.5,2.2-4.34-.29-5.49,1.49-5.23,5.5.29,4.31.06,8.66.07,13,0,7.45,1.56,8.77,9,7.72C291.23,89.8,292.18,89.52,294.27,89.05Z" transform="translate(-23.64 -36.38)"/><path class="cls-1" d="M248.79,66c2.1-1.81,3.43-4.28,6-5.32,2.68-1.12,5.35-1.32,7.28,1.13a5.71,5.71,0,0,1-.16,7.78c-2.06,2.4-4.48,2.18-7.18.69-5.09-2.81-6.5-1.94-6.55,3.78,0,5.5.07,11,0,16.5-.06,3.12.39,5.69,4.14,6.72H235.39c.92-9.89,2.15-19.84-.66-29.71-.55-1.9-.39-2.76,1.34-3.43s3.4-1.35,5.11-2C247.53,59.66,247.53,59.66,248.79,66Z" transform="translate(-23.64 -36.38)"/><path class="cls-1" d="M165.11,64.38c2.54-1.35,4.34-2.47,6.26-3.31,9.79-4.35,19.19.83,20.78,11.41,1.44,9.56-2.39,18-10.26,22.58-7.4,4.32-21,3.73-27.18-1-1.83-1.39-1.64-3.06-1.63-4.87q.06-18.94.12-37.9c0-3.12.47-6.34-1.79-9.06-1-1.16-.68-2.12.84-2.6.31-.09.61-.24.92-.36,11.94-4.76,11.94-4.76,11.94,8.12Zm.8,25.83c.81,2.51,2.1,4.59,5,5a5.88,5.88,0,0,0,6.48-3.65c3-6.51,3.44-13.16.16-19.72a9.11,9.11,0,0,0-7.5-5.15c-3.15-.36-5.24.29-4.94,4.14.2,2.48,0,5,0,8.1C165.29,82.28,164.65,86.3,165.91,90.21Z" transform="translate(-23.64 -36.38)"/><path class="cls-1" d="M105.93,98c-11.67,0-20.72-8.42-20.58-19.17s9.36-19.31,20.73-19.29c11.55,0,20.76,8.63,20.61,19.25S117.35,98,105.93,98ZM111,65.64c-1-2.18-2.43-4.1-5.16-4a5.43,5.43,0,0,0-5.12,4.08,38.24,38.24,0,0,0,.37,26.3c.83,2.22,2.36,4.08,5.13,4s4.14-1.86,5.17-4.05c1.9-4,1.81-8.38,1.93-12.3C113.21,74.61,113.06,70,111,65.64Z" transform="translate(-23.64 -36.38)"/><path class="cls-1" d="M317.14,98c-11.48,0-20.2-8.15-20.25-18.87-.06-11.06,9.1-19.66,20.8-19.54,11.48.12,20.27,8.3,20.32,18.91C338.07,89.48,328.91,98,317.14,98Zm-4.69-6c1,2.17,2.38,4.09,5.16,4A5.48,5.48,0,0,0,322.77,92a36.87,36.87,0,0,0-.63-26.75c-.85-2.09-2.43-3.64-4.91-3.61s-4,1.59-4.94,3.64c-1.9,4-2.28,8.29-2.28,12.64C310,82.73,310.43,87.52,312.45,92Z" transform="translate(-23.64 -36.38)"/><path class="cls-1" d="M228.85,88.17a16.57,16.57,0,0,1-18.72,9.64c-7.78-1.41-13.14-7.71-13.77-16.2-1-13.37,10.77-24.21,23.54-21.67a11.7,11.7,0,0,1,7.21,4.12c1.63,2,2.56,4.46,1.61,7s-3.57,1.93-5.65,2c-3.66.08-7.33.2-11,0s-4.17,1.46-3.71,4.56C209.92,87.87,216.81,91.68,228.85,88.17Zm-9.57-20.7c-.21-2.56-.64-5.12-3.95-5.36-2.68-.19-6.18,3.66-6.24,6.78-.06,3.59,2.81,1.67,4.28,2.3C215.89,70.71,219.68,72.38,219.28,67.47Z" transform="translate(-23.64 -36.38)"/></svg>
