<svg id="Layer_1" data-name="Layer 1" xmlns="http://www.w3.org/2000/svg" viewBox="0 0 195 207.68"><defs><style>
	.cls-1{fill:#564a4a;}
	@media (prefers-color-scheme: dark) {
        .cls-1{fill:#FFFFFF;}
	}
</style></defs><title>torre</title><path class="cls-1" d="M195,105.1q0,17,0,33.94c0,13.29-5.77,23.26-17.34,29.75-21,11.77-42.08,23.39-63.08,35.15-11.42,6.41-22.7,6.43-34.12,0-21-11.76-42.08-23.39-63.08-35.15C5.81,162.33,0,152.38,0,139.08Q0,104.94,0,70.8C0,57.5,5.77,47.53,17.34,41.05c21-11.77,42.08-23.39,63.08-35.16,11.42-6.4,22.7-6.42,34.12,0,21,11.77,42.08,23.4,63.08,35.16C189.19,47.51,195,57.46,195,70.75Zm-179-.17c0,11.46.05,22.91,0,34.36,0,6.9,2.84,12.05,8.85,15.4q32.43,18,64.88,36.07a15.33,15.33,0,0,0,15.63,0q32.46-18,64.87-36.07c6-3.35,8.85-8.51,8.84-15.41q-.09-34.36,0-68.72c0-6.9-2.84-12-8.85-15.39Q137.75,37.09,105.3,19.08a15.31,15.31,0,0,0-15.63,0q-32.46,18-64.87,36.08c-6,3.35-8.87,8.51-8.83,15.41C16,82,16,93.48,16,104.93Z" transform="translate(0 -1.08)"/><path class="cls-1" d="M84.94,115.58c0-6.26-.11-11.46,0-16.64.08-2.51-.51-3.91-3.26-3.38-4.17.8-5.53-1-4.84-5a6.86,6.86,0,0,0,0-1.2c0-5.78,0-5.88,5.59-6.08,2-.06,2.53-.68,2.48-2.55-.1-4,.07-8-.07-12-.06-2.09.32-3.2,2.78-3a72.1,72.1,0,0,0,9.18,0c2.24-.14,2.66.81,2.6,2.78-.12,3.85.09,7.72-.08,11.57-.1,2.38.54,3.35,3.1,3.21,3.85-.2,7.72,0,11.58-.08,1.89-.06,2.43.56,2.53,2.48.47,9.84.54,9.83-9.17,9.83-8,0-8,0-8,7.86,0,6.92,0,13.84,0,20.76,0,9.32,3.89,12.36,12.84,9.67,3.29-1,4.62-.67,4,3a4.27,4.27,0,0,0,0,.8c0,7.49-1,8.71-8.58,9.55a43.49,43.49,0,0,1-7.57.1c-8.28-.54-13.45-5.42-14.65-13.63C84.47,127.28,85.21,120.88,84.94,115.58Z" transform="translate(0 -1.08)"/></svg>
